<svg width="327" height="31" viewBox="0 0 327 31" fill="none" xmlns="http://www.w3.org/2000/svg">
<g clip-path="url(#clip0_10983_1406)">
<path d="M31.3384 8.86337L18.9463 20.6774L6.59733 8.81932V31.0002H0V0.209961H7.11128L18.9463 11.4556L30.8224 0.209961H37.9418V31.0002H31.3384V8.86337Z" fill="white"/>
<path d="M78.441 6.27112H50.9255V12.6406H70.3776V18.6577H50.9255V24.9831H78.441V31.0002H44.322V0.209961H78.441V6.27112Z" fill="white"/>
<path d="M116.393 6.18513H96.9698C92.3382 6.39486 88.5215 10.6209 88.5215 15.6229C88.5215 20.625 92.5962 25.0209 97.3978 25.0209H109.876V18.5696H97.8278V12.6406H116.393V31.0002H96.032C88.4416 30.8681 82.4626 23.708 82.4626 15.6271C82.4626 7.54627 88.0567 0.73638 95.4751 0.254004C95.774 0.254004 100.75 0.209961 108.295 0.209961H116.399L116.393 6.18513Z" fill="white"/>
<path d="M148.594 23.4458H132.045L128.23 30.996H120.726L136.095 0.209961H144.586L159.917 31.0002H152.451L148.594 23.4458ZM140.342 6.49134L135.141 17.4287H145.514L140.342 6.49134Z" fill="white"/>
<path d="M164.084 31.0002V24.9831H189.212C191.055 24.9831 192.426 23.5758 192.426 21.7764C192.418 20.0335 191.042 18.622 189.341 18.6137H172.661C167.685 18.2613 164.041 14.5281 164.041 9.74213C164.012 4.70235 167.833 0.518262 172.745 0.209961H195.772V6.22708C173.732 6.22708 173.988 6.27112 173.56 6.27112C171.803 6.31516 170.472 7.6784 170.472 9.43383C170.472 11.1893 171.846 12.5965 173.689 12.5965H189.683C194.828 12.7287 198.817 16.5059 198.817 21.5121C198.817 26.8266 193.927 30.6479 189.298 31.0002H164.084Z" fill="white"/>
<path d="M204.173 0.253906H210.777V24.983H232.962V31.0001H204.173V0.253906Z" fill="white"/>
<path d="M264.958 23.4458H248.411L244.595 30.996H237.09L252.468 0.209961H260.959L276.285 31.0002H268.824L264.958 23.4458ZM256.706 6.49134L251.499 17.4287H261.872L256.706 6.49134Z" fill="white"/>
<path d="M306.524 31.0002H281.224V0.209961H306.614C311.68 0.31902 315.732 4.55344 315.738 9.74213C315.738 11.657 315.165 13.5256 314.1 15.1007L313.715 15.6271L314.1 16.1535C315.19 17.716 315.763 19.5931 315.738 21.5121C315.738 26.6505 311.664 30.8681 306.604 31.0002H306.524ZM287.83 12.5441H306.139C307.833 12.4434 309.127 10.9565 309.028 9.222C308.938 7.62807 307.695 6.35501 306.139 6.26273H287.83V12.5441ZM306.139 24.9747C307.833 25.0838 309.292 23.7667 309.399 22.0301C309.505 20.2957 308.22 18.8003 306.524 18.6934L306.483 18.6493H287.83V24.9747H306.139Z" fill="white"/>
<path d="M319.856 3.33469C319.856 1.49956 321.447 0 323.435 0C325.423 0 327 1.49746 327 3.33469C327 5.17191 325.411 6.66308 323.429 6.66308C321.447 6.66308 319.856 5.16142 319.856 3.33469ZM320.368 3.33469C320.368 4.92862 321.75 6.19958 323.439 6.19958C325.128 6.19958 326.511 4.92862 326.511 3.33469C326.511 1.74075 325.124 0.457209 323.439 0.457209C321.754 0.457209 320.368 1.73865 320.368 3.33469ZM324.021 4.92233L323.503 4.11488H322.788V4.92233H322.026V1.73865H323.744C324.371 1.70509 324.905 2.20005 324.936 2.84182C324.936 2.86909 324.936 2.89845 324.936 2.92572C324.936 3.34517 324.66 3.71849 324.201 3.97436L324.875 4.92023H324.019L324.021 4.92233ZM322.792 2.35525V3.49408H323.574C323.89 3.49827 324.152 3.2487 324.174 2.92781C324.164 2.61322 323.914 2.36154 323.607 2.35525H322.792Z" fill="white"/>
</g>
<defs>
<clipPath id="clip0_10983_1406">
<rect width="327" height="31" fill="white"/>
</clipPath>
</defs>
</svg>
