<svg width="180" height="30" viewBox="0 0 180 30" fill="none" xmlns="http://www.w3.org/2000/svg">
<path d="M75.163 12.1117L73.5091 12.16V5.64085H75.356C76.7687 5.64085 77.2512 6.66303 77.2512 8.94867C77.2512 11.2343 76.7643 12.1117 75.1586 12.1117M83.3799 26.9969V19.9908C83.3799 16.683 82.213 14.7352 79.6816 14.3009C82.599 13.5243 83.4282 11.0413 83.4282 7.87824C83.4282 3.40346 81.8225 0.630859 76.6195 0.630859H67.3278V29.48H73.5047V16.9287H75.0138C76.523 16.9287 77.203 17.9509 77.203 19.3108V26.9969C77.203 28.2604 77.4443 29.2343 77.6417 29.48H83.9195C83.7265 29.287 83.3843 28.313 83.3843 26.9969" fill="#D8D8D8"/>
<path d="M13.8674 24.6156C14.9861 23.69 15.1791 22.523 15.1791 21.5008V17.1708H9.14696V23.01C9.14696 23.8391 8.46697 24.5191 7.63782 24.5191C6.80867 24.5191 6.17694 23.8391 6.17694 23.01V6.41823C6.17694 5.58908 6.80867 4.90909 7.63782 4.90909C8.46697 4.90909 9.14696 5.58908 9.14696 6.41823V12.3056H15.1791V6.17694C15.1791 2.82086 12.99 0 7.58957 0C2.18913 0 0 2.7726 0 6.17694V23.5935C0 26.9495 2.67609 29.4809 6.08043 29.4809H7.92737L13.863 24.6156H13.8674Z" fill="#D8D8D8"/>
<path d="M171.195 12.1117H169.541V5.59259H171.437C172.849 5.59259 173.332 6.61477 173.332 8.90042C173.283 11.1861 172.796 12.1117 171.191 12.1117M179.412 26.9969V19.9908C179.412 16.683 178.245 14.7352 175.714 14.3009C178.631 13.5243 179.46 11.0413 179.46 7.87824C179.46 3.40346 177.855 0.630859 172.652 0.630859H163.36V29.48H169.585V16.9287H171.094C172.603 16.9287 173.283 17.9509 173.283 19.3108V26.9969C173.283 28.2604 173.525 29.2343 173.722 29.48H180C179.759 29.287 179.417 28.2648 179.417 26.9969" fill="#D8D8D8"/>
<path d="M150.423 19.1172L152.028 5.64028L153.634 19.1172H150.423ZM156.214 0.582031H147.896L142.934 29.4794H149.212L149.844 24.3729H154.318L154.95 29.4794H161.228L156.218 0.582031H156.214Z" fill="#D8D8D8"/>
<path d="M114.664 29.5288V0.679688H120.99V24.0319H127.606V29.5288H114.664Z" fill="#D8D8D8"/>
<path d="M111.312 0.679688H104.938V29.5288H111.312V0.679688Z" fill="#D8D8D8"/>
<path d="M114.664 29.5288V0.679688H120.99V24.0319H127.606V29.5288H114.664Z" fill="#D8D8D8"/>
<path d="M129.163 29.5288V0.679688H135.489V24.0319H142.153V29.5288H129.163Z" fill="#D8D8D8"/>
<path d="M94.5273 12.9385H92.6321V5.64289H94.5273C96.133 5.64289 96.4225 6.76159 96.4225 9.38942C96.3743 12.1138 96.1286 12.9429 94.5273 12.9429M96.133 0.685547H86.4508V29.5347H92.676V18.1021H96.1286C101.819 18.1021 102.793 14.4521 102.793 9.39381C102.793 4.33556 101.819 0.685547 96.1286 0.685547" fill="#D8D8D8"/>
<path d="M56.5789 6.17607V11.866H63.1463V17.5122H56.5789V23.9304H64.4097V29.48L50.2045 29.5282V0.630859H64.1202V6.17607H56.5789Z" fill="#D8D8D8"/>
<path d="M37.6052 25.2953V6.27315H33.4727V0.679688H48.5026V6.27315H44.3218V29.4323H42.567L37.6052 25.2953Z" fill="#D8D8D8"/>
<path d="M40.3299 29.4819L25.686 17.1719L10.463 29.4819H40.3299Z" fill="white"/>
<path d="M24.0324 13.8627L25.6381 5.59316L27.2437 13.8627H24.0324ZM29.8233 0.679688H21.409L16.5438 22.6192L25.6425 15.2753L35.1272 23.2554L29.8233 0.684075V0.679688Z" fill="#D8D8D8"/>
</svg>
